<?xml version="1.0" encoding="UTF-8" standalone="no"?>
<!-- Created with Inkscape (http://www.inkscape.org/) -->

<svg
   xmlns:dc="http://purl.org/dc/elements/1.1/"
   xmlns:cc="http://creativecommons.org/ns#"
   xmlns:rdf="http://www.w3.org/1999/02/22-rdf-syntax-ns#"
   xmlns:svg="http://www.w3.org/2000/svg"
   xmlns="http://www.w3.org/2000/svg"
   xmlns:sodipodi="http://sodipodi.sourceforge.net/DTD/sodipodi-0.dtd"
   xmlns:inkscape="http://www.inkscape.org/namespaces/inkscape"
   width="70.708664"
   height="80.402344"
   id="svg3464"
   version="1.1"
   inkscape:version="0.48.4 r9939"
   sodipodi:docname="solder-5.svg">
  <defs
     id="defs3466">
    <marker
       inkscape:stockid="Arrow2Mend"
       orient="auto"
       refY="0"
       refX="0"
       id="Arrow2Mend"
       style="overflow:visible">
      <path
         id="path4321"
         style="fill-rule:evenodd;stroke-width:0.625;stroke-linejoin:round"
         d="M 8.7185878,4.0337352 -2.2072895,0.01601326 8.7185884,-4.0017078 c -1.7454984,2.3720609 -1.7354408,5.6174519 -6e-7,8.035443 z"
         transform="scale(-0.6,-0.6)"
         inkscape:connector-curvature="0" />
    </marker>
  </defs>
  <sodipodi:namedview
     id="base"
     pagecolor="#ffffff"
     bordercolor="#666666"
     borderopacity="1.0"
     inkscape:pageopacity="0.0"
     inkscape:pageshadow="2"
     inkscape:zoom="3.959798"
     inkscape:cx="115.15731"
     inkscape:cy="44.277406"
     inkscape:document-units="px"
     inkscape:current-layer="layer1"
     showgrid="true"
     inkscape:object-paths="false"
     inkscape:snap-bbox="false"
     inkscape:snap-object-midpoints="true"
     fit-margin-top="0"
     fit-margin-left="0"
     fit-margin-right="0"
     fit-margin-bottom="0"
     inkscape:window-width="1920"
     inkscape:window-height="1058"
     inkscape:window-x="-8"
     inkscape:window-y="404"
     inkscape:window-maximized="1">
    <inkscape:grid
       type="xygrid"
       id="grid3472"
       empspacing="5"
       visible="true"
       enabled="true"
       snapvisiblegridlinesonly="true"
       originx="-124.64567px"
       originy="-108.42188px" />
  </sodipodi:namedview>
  <metadata
     id="metadata3469">
    <rdf:RDF>
      <cc:Work
         rdf:about="">
        <dc:format>image/svg+xml</dc:format>
        <dc:type
           rdf:resource="http://purl.org/dc/dcmitype/StillImage" />
        <dc:title />
      </cc:Work>
    </rdf:RDF>
  </metadata>
  <g
     inkscape:label="Layer 1"
     inkscape:groupmode="layer"
     id="layer1"
     transform="translate(-124.64567,-863.53796)">
    <path
       style="color:#000000;fill:#b3b3b3;stroke:#000000;stroke-width:0.70866144;stroke-linecap:butt;stroke-linejoin:miter;stroke-miterlimit:4;stroke-opacity:1;stroke-dasharray:none;stroke-dashoffset:0;marker:none;visibility:visible;display:inline;overflow:visible;enable-background:accumulate"
       d="m 164,902.36218 c -2,-4 -2,-8 0,-8 2,0 3,6 7,6"
       id="path6068"
       inkscape:connector-curvature="0"
       sodipodi:nodetypes="csc" />
    <path
       sodipodi:type="arc"
       style="fill:#b3b3b3;fill-opacity:1;stroke:#000000;stroke-width:0.70866144;stroke-miterlimit:4;stroke-dasharray:none"
       id="path6066"
       sodipodi:cx="32.917969"
       sodipodi:cy="31.824224"
       sodipodi:rx="3.4999988"
       sodipodi:ry="3.4999988"
       d="m 36.417968,31.824224 c 0,1.932996 -1.567003,3.499999 -3.499999,3.499999 -1.932996,0 -3.499999,-1.567003 -3.499999,-3.499999 0,-1.932995 1.567003,-3.499998 3.499999,-3.499998 1.932996,0 3.499999,1.567003 3.499999,3.499998 z"
       transform="translate(121.08203,864.53796)" />
    <path
       style="color:#000000;fill:#666666;stroke:#000000;stroke-width:0.70866144;stroke-linecap:butt;stroke-linejoin:miter;stroke-miterlimit:4;stroke-opacity:1;stroke-dasharray:none;stroke-dashoffset:0;marker:none;visibility:visible;display:inline;overflow:visible;enable-background:accumulate"
       d="m 149,907.36218 0,2 7,0 0,-9 -7,0 0,2"
       id="path3482"
       inkscape:connector-curvature="0"
       sodipodi:nodetypes="cccccc" />
    <path
       style="color:#000000;fill:#666666;stroke:#000000;stroke-width:0.70866144;stroke-linecap:butt;stroke-linejoin:miter;stroke-miterlimit:4;stroke-opacity:1;stroke-dasharray:none;stroke-dashoffset:0;marker:none;visibility:visible;display:inline;overflow:visible;enable-background:accumulate"
       d="m 171,902.36218 0,-2 -7,0 0,9 7,0 0,-2"
       id="path3484"
       inkscape:connector-curvature="0"
       sodipodi:nodetypes="cccccc" />
    <path
       sodipodi:nodetypes="csccsc"
       inkscape:connector-curvature="0"
       id="path3512"
       d="m 195,911.36218 c -5,0 -7,-2 -12,-2 -5,0 -8,6 -8,11 l 0,0 c 0,5 3,11 8,11 5,0 7,-2 12,-2"
       style="color:#000000;fill:#b3b3b3;stroke:none;stroke-width:0.70866144;marker:none;visibility:visible;display:inline;overflow:visible;enable-background:accumulate" />
    <path
       style="color:#000000;fill:#cccccc;stroke:#000000;stroke-width:0.70866144;stroke-linecap:butt;stroke-linejoin:miter;stroke-miterlimit:4;stroke-opacity:1;stroke-dasharray:none;stroke-dashoffset:0;marker:none;visibility:visible;display:inline;overflow:visible;enable-background:accumulate"
       d="m 125,902.36218 29,0 0,5 -29,0"
       id="path3478"
       inkscape:connector-curvature="0"
       sodipodi:nodetypes="cccc" />
    <path
       style="color:#000000;fill:#b3b3b3;stroke:#000000;stroke-width:0.70866144;stroke-linecap:butt;stroke-linejoin:miter;stroke-miterlimit:4;stroke-opacity:1;stroke-dasharray:none;stroke-dashoffset:0;marker:none;visibility:visible;display:inline;overflow:visible;enable-background:accumulate"
       d="m 195,907.36218 -29,0 0,-5 29,0"
       id="path3480"
       inkscape:connector-curvature="0"
       sodipodi:nodetypes="cccc" />
    <path
       style="color:#000000;fill:#4d4d4d;stroke:#000000;stroke-width:0.70866144;stroke-linecap:butt;stroke-linejoin:miter;stroke-miterlimit:4;stroke-opacity:1;stroke-dasharray:none;stroke-dashoffset:0;marker:none;visibility:visible;display:inline;overflow:visible;enable-background:accumulate"
       d="m 175,922.36218 -4,0 0,0 c -7.1797,0 -13,-5.8203 -13,-13 l 0,0 0,0 0,-30 4,0 0,30 0,0 0,0 c 0,4.97057 4.02944,9 9,9 l 0,0 4,0"
       id="path3500"
       inkscape:connector-curvature="0"
       sodipodi:nodetypes="cccccccccccccc" />
    <path
       style="color:#000000;fill:none;stroke:#000000;stroke-width:0.70866144;stroke-linecap:butt;stroke-linejoin:miter;stroke-miterlimit:4;stroke-opacity:1;stroke-dasharray:none;stroke-dashoffset:0;marker:none;visibility:visible;display:inline;overflow:visible;enable-background:accumulate"
       d="m 195,911.36218 c -5,0 -7,-2 -12,-2 -5,0 -8,6 -8,11 l 0,0 c 0,5 3,11 8,11 5,0 7,-2 12,-2"
       id="path3510"
       inkscape:connector-curvature="0"
       sodipodi:nodetypes="csccsc" />
    <path
       sodipodi:type="arc"
       style="fill:#f2f2f2;fill-opacity:1;stroke:#000000;stroke-width:0.79043001;stroke-linejoin:bevel;stroke-miterlimit:4;stroke-opacity:1;stroke-dasharray:none;stroke-dashoffset:0"
       id="path6070-2"
       sodipodi:cx="26.917971"
       sodipodi:cy="26.324224"
       sodipodi:rx="12.5"
       sodipodi:ry="12.5"
       d="m 39.417971,26.324224 a 12.5,12.5 0 1 1 -25,0 12.5,12.5 0 1 1 25,0 z"
       transform="matrix(0.89655177,0,0,0.89655177,113.38389,896.55426)" />
    <path
       sodipodi:type="arc"
       style="fill:#f2f2f2;fill-opacity:1;stroke:#000000;stroke-width:0.79043001;stroke-linejoin:bevel;stroke-miterlimit:4;stroke-opacity:1;stroke-dasharray:none;stroke-dashoffset:0"
       id="path6072-4"
       sodipodi:cx="10.41797"
       sodipodi:cy="12.824224"
       sodipodi:rx="1"
       sodipodi:ry="1"
       d="m 11.41797,12.824224 a 1,1 0 1 1 -2.0000003,0 1,1 0 1 1 2.0000003,0 z"
       transform="matrix(0.89655177,0,0,0.89655177,123.69423,906.8646)" />
    <path
       sodipodi:type="arc"
       style="fill:#f2f2f2;fill-opacity:1;stroke:#000000;stroke-width:0.79043001;stroke-linejoin:bevel;stroke-miterlimit:4;stroke-opacity:1;stroke-dasharray:none;stroke-dashoffset:0"
       id="path6074-5"
       sodipodi:cx="20.417971"
       sodipodi:cy="13.824224"
       sodipodi:rx="1"
       sodipodi:ry="1"
       d="m 21.417971,13.824224 a 1,1 0 1 1 -2,0 1,1 0 1 1 2,0 z"
       transform="matrix(0.89655177,0,0,0.89655177,123.69423,905.96805)" />
    <path
       style="color:#000000;fill:none;stroke:#000000;stroke-width:0.70866144;stroke-linecap:butt;stroke-linejoin:miter;stroke-miterlimit:4;stroke-opacity:1;stroke-dasharray:none;stroke-dashoffset:0;marker:none;visibility:visible;display:inline;overflow:visible;enable-background:accumulate"
       d="m 132.13793,926.43114 c 2.68966,-3.5862 8.06897,-3.5862 10.75862,0"
       id="path6076-5"
       inkscape:connector-curvature="0"
       sodipodi:nodetypes="cc" />
  </g>
</svg>
